<svg width="172" height="35" viewBox="0 0 172 35" fill="none" xmlns="http://www.w3.org/2000/svg">
<mask id="mask0_19_2" style="mask-type:luminance" maskUnits="userSpaceOnUse" x="11" y="2" width="22" height="30">
<path d="M11.768 2.43323H32.936V31.2452H11.768V2.43323Z" fill="white"/>
</mask>
<g mask="url(#mask0_19_2)">
<path fill-rule="evenodd" clip-rule="evenodd" d="M25.1705 22.6386L30.8535 31.1595H22.1336L16.6598 22.952L11.8742 15.7704C11.8742 15.7704 22.6419 15.7704 22.646 15.7704C24.3212 15.7704 25.7248 14.3647 25.7248 12.6926C25.7248 10.995 24.3447 9.61479 22.646 9.61479H20.0562L15.2705 2.43323H22.646C28.3147 2.43323 32.9054 7.02391 32.9054 12.6926C32.9054 15.5244 31.7569 18.0887 29.9 19.9456C28.624 21.2217 26.9182 22.1935 25.1705 22.6386Z" fill="#E8E5DE"/>
</g>
<mask id="mask1_19_2" style="mask-type:luminance" maskUnits="userSpaceOnUse" x="2" y="2" width="15" height="8">
<path d="M2.97656 2.43323H16.7333V9.83733H2.97656V2.43323Z" fill="white"/>
</mask>
<g mask="url(#mask1_19_2)">
<path fill-rule="evenodd" clip-rule="evenodd" d="M16.4895 9.61479H7.76848L2.98077 2.43323H11.7018L16.4895 9.61479Z" fill="#5E17EB"/>
</g>
<mask id="mask2_19_2" style="mask-type:luminance" maskUnits="userSpaceOnUse" x="11" y="5" width="19" height="27">
<path d="M11.768 5.91734H29.5387V31.2452H11.768V5.91734Z" fill="white"/>
</mask>
<g mask="url(#mask2_19_2)">
<path fill-rule="evenodd" clip-rule="evenodd" d="M22.5296 19.5894H19.2109L21.4455 22.9479L26.9192 31.1595H22.1315L18.6841 25.9808L11.8772 15.7663C11.8772 15.7663 22.6419 15.7663 22.6501 15.7663C24.3171 15.7663 25.7218 14.3627 25.7218 12.6946C25.7218 10.995 24.3416 9.61479 22.6501 9.61479H20.0582L17.6643 6.0235H22.5296C26.2802 6.0235 29.3131 9.06354 29.3131 12.8069C29.3131 16.5483 26.2802 19.5894 22.5296 19.5894Z" fill="#E8E5DE"/>
</g>
<mask id="mask3_19_2" style="mask-type:luminance" maskUnits="userSpaceOnUse" x="2" y="2" width="15" height="8">
<path d="M2.97656 2.43323H16.7333V9.83733H2.97656V2.43323Z" fill="white"/>
</mask>
<g mask="url(#mask3_19_2)">
<path fill-rule="evenodd" clip-rule="evenodd" d="M2.98077 2.43323L7.76848 9.61479H16.4895L14.0956 6.0235H10.4625C7.66844 6.0235 5.01325 4.8036 3.19515 2.68231L2.98077 2.43323Z" fill="#5271FF"/>
</g>
<path d="M45 27.162V9.37314H53.2953C54.645 9.37314 55.8203 9.62054 56.8212 10.1113C57.8221 10.598 58.5974 11.2875 59.149 12.1798C59.6988 13.068 59.9755 14.1083 59.9755 15.3028C59.9755 16.7466 59.5755 17.9431 58.7775 18.8881C57.9775 19.8352 56.9501 20.4172 55.6914 20.6321L55.3426 20.6808L60.3471 27.162H55.3881L51.0812 21.0296H49.5192V27.162H45ZM49.5192 17.9634H52.4309C53.3143 17.9634 54.0422 17.7363 54.6147 17.282C55.1909 16.8237 55.4791 16.1869 55.4791 15.3758C55.4791 14.5443 55.1909 13.9035 54.6147 13.4533C54.0422 13.0051 53.3143 12.78 52.4309 12.78H49.5192V17.9634Z" fill="#E8E5DE"/>
<path d="M62.3471 27.162L67.6549 9.37314H74.3199L79.6277 27.162H74.9493L74.0621 24.1932H67.9127L67.0255 27.162H62.3471ZM68.7695 20.7863H73.1977L71.0822 13.4533H70.8699L68.7695 20.7863Z" fill="#E8E5DE"/>
<path d="M81.6277 27.162V9.37314H94.3664V13.1288H85.9573V16.625H93.9266V19.6831H85.9573V23.3982H94.6014V27.162H81.6277Z" fill="#E8E5DE"/>
<path d="M96.6014 27.162V9.37314H101.098V16.0977H107.27V9.37314H111.789V27.162H107.27V19.8615H101.098V27.162H96.6014Z" fill="#E8E5DE"/>
<path d="M123.063 27.5352C121.228 27.5352 119.613 27.16 118.217 26.4076C116.822 25.6512 115.734 24.5805 114.957 23.1954C114.178 21.8063 113.789 20.1617 113.789 18.2635C113.789 16.3715 114.178 14.7329 114.957 13.3479C115.734 11.9587 116.822 10.888 118.217 10.1356C119.613 9.37922 121.228 9 123.063 9C124.913 9 126.53 9.37922 127.916 10.1356C129.305 10.888 130.391 11.9587 131.176 13.3479C131.965 14.7329 132.359 16.3715 132.359 18.2635C132.359 20.1617 131.965 21.8063 131.176 23.1954C130.391 24.5805 129.305 25.6512 127.916 26.4076C126.53 27.16 124.913 27.5352 123.063 27.5352ZM123.063 23.601C124.007 23.601 124.837 23.3779 125.55 22.9277C126.266 22.4796 126.827 21.857 127.233 21.062C127.637 20.263 127.84 19.3302 127.84 18.2635C127.84 17.205 127.637 16.2762 127.233 15.4812C126.827 14.6822 126.266 14.0576 125.55 13.6074C124.837 13.1593 124.007 12.9342 123.063 12.9342C122.132 12.9342 121.305 13.1593 120.583 13.6074C119.859 14.0576 119.296 14.6822 118.892 15.4812C118.487 16.2762 118.286 17.205 118.286 18.2635C118.286 19.3302 118.487 20.263 118.892 21.062C119.296 21.857 119.859 22.4796 120.583 22.9277C121.305 23.3779 122.132 23.601 123.063 23.601Z" fill="#E8E5DE"/>
<path d="M141.813 27.5352C140.336 27.5352 139.034 27.2695 137.908 26.7402C136.78 26.2048 135.906 25.4728 135.284 24.542C134.666 23.6132 134.359 22.5424 134.359 21.3297H138.575C138.575 22.1632 138.874 22.8365 139.477 23.3495C140.084 23.8646 140.922 24.1201 141.995 24.1201C142.893 24.1201 143.613 23.9397 144.156 23.5767C144.701 23.2096 144.974 22.7087 144.974 22.076C144.974 21.5792 144.819 21.204 144.512 20.9485C144.203 20.6889 143.792 20.4942 143.276 20.3644C142.764 20.2306 142.199 20.1191 141.577 20.0319C141.001 19.9508 140.389 19.8575 139.742 19.748C139.1 19.6405 138.469 19.4864 137.847 19.2856C137.229 19.0869 136.664 18.807 136.148 18.4501C135.637 18.0932 135.231 17.6207 134.928 17.0306C134.624 16.4425 134.473 15.6982 134.473 14.7998C134.473 13.6378 134.77 12.6219 135.367 11.7499C135.963 10.8799 136.797 10.2046 137.87 9.72194C138.941 9.24132 140.192 9 141.623 9C143.083 9 144.356 9.26363 145.445 9.78683C146.531 10.306 147.38 11.0279 147.992 11.9526C148.608 12.8733 148.917 13.938 148.917 15.1486H144.861C144.861 14.2888 144.576 13.6196 144.011 13.137C143.445 12.6503 142.703 12.4069 141.79 12.4069C140.935 12.4069 140.251 12.5996 139.735 12.9828C139.223 13.3681 138.969 13.8487 138.969 14.4267C138.969 14.9418 139.145 15.3332 139.5 15.6029C139.858 15.8686 140.328 16.0693 140.91 16.2032C141.496 16.3329 142.131 16.4465 142.813 16.5439C143.526 16.6635 144.265 16.8095 145.035 16.9819C145.803 17.1563 146.523 17.4179 147.196 17.7687C147.873 18.1155 148.421 18.6123 148.842 19.2613C149.26 19.9102 149.471 20.7599 149.471 21.8083C149.471 22.9723 149.152 23.9802 148.515 24.834C147.879 25.6898 146.986 26.3549 145.839 26.8294C144.69 27.2999 143.348 27.5352 141.813 27.5352Z" fill="#E8E5DE"/>
<path d="M156.779 27.162V13.3073H151.471V9.37314H166.591V13.3073H161.275V27.162H156.779Z" fill="#E8E5DE"/>
</svg>
