<svg width="76" height="76" viewBox="0 0 76 76" fill="none" xmlns="http://www.w3.org/2000/svg">
<mask id="mask0_16_2" style="mask-type:luminance" maskUnits="userSpaceOnUse" x="29" y="12" width="22" height="30">
<path d="M29.768 12.4332H50.936V41.2452H29.768V12.4332Z" fill="white"/>
</mask>
<g mask="url(#mask0_16_2)">
<path fill-rule="evenodd" clip-rule="evenodd" d="M43.1705 32.6386L48.8535 41.1595H40.1336L34.6598 32.952L29.8742 25.7704C29.8742 25.7704 40.6419 25.7704 40.646 25.7704C42.3212 25.7704 43.7248 24.3647 43.7248 22.6926C43.7248 20.995 42.3447 19.6148 40.646 19.6148H38.0562L33.2705 12.4332H40.646C46.3147 12.4332 50.9054 17.0239 50.9054 22.6926C50.9054 25.5244 49.7569 28.0887 47.9 29.9456C46.624 31.2217 44.9182 32.1935 43.1705 32.6386Z" fill="#E8E5DE"/>
</g>
<mask id="mask1_16_2" style="mask-type:luminance" maskUnits="userSpaceOnUse" x="20" y="12" width="15" height="8">
<path d="M20.9766 12.4332H34.7333V19.8373H20.9766V12.4332Z" fill="white"/>
</mask>
<g mask="url(#mask1_16_2)">
<path fill-rule="evenodd" clip-rule="evenodd" d="M34.4895 19.6148H25.7685L20.9808 12.4332H29.7018L34.4895 19.6148Z" fill="#5E17EB"/>
</g>
<mask id="mask2_16_2" style="mask-type:luminance" maskUnits="userSpaceOnUse" x="29" y="15" width="19" height="27">
<path d="M29.768 15.9173H47.5387V41.2452H29.768V15.9173Z" fill="white"/>
</mask>
<g mask="url(#mask2_16_2)">
<path fill-rule="evenodd" clip-rule="evenodd" d="M40.5296 29.5894H37.2109L39.4455 32.9479L44.9192 41.1595H40.1315L36.6841 35.9808L29.8772 25.7663C29.8772 25.7663 40.6419 25.7663 40.6501 25.7663C42.3171 25.7663 43.7218 24.3627 43.7218 22.6946C43.7218 20.995 42.3416 19.6148 40.6501 19.6148H38.0582L35.6643 16.0235H40.5296C44.2802 16.0235 47.3131 19.0635 47.3131 22.8069C47.3131 26.5483 44.2802 29.5894 40.5296 29.5894Z" fill="#E8E5DE"/>
</g>
<mask id="mask3_16_2" style="mask-type:luminance" maskUnits="userSpaceOnUse" x="20" y="12" width="15" height="8">
<path d="M20.9766 12.4332H34.7333V19.8373H20.9766V12.4332Z" fill="white"/>
</mask>
<g mask="url(#mask3_16_2)">
<path fill-rule="evenodd" clip-rule="evenodd" d="M20.9808 12.4332L25.7685 19.6148H34.4895L32.0956 16.0235H28.4625C25.6685 16.0235 23.0133 14.8036 21.1952 12.6823L20.9808 12.4332Z" fill="#5271FF"/>
</g>
<path d="M2.76244 56.1448V47.19H7.2296C7.95644 47.19 8.58935 47.3146 9.12835 47.5616C9.66735 47.8066 10.0849 48.1537 10.3819 48.6029C10.678 49.05 10.827 49.5737 10.827 50.175C10.827 50.9018 10.6116 51.5041 10.1819 51.9798C9.75106 52.4565 9.19777 52.7495 8.51994 52.8577L8.3321 52.8822L11.0271 56.1448H8.3566L6.03727 53.0578H5.1961V56.1448H2.76244ZM5.1961 51.5143H6.7641C7.23981 51.5143 7.63181 51.4 7.9401 51.1713C8.25044 50.9406 8.4056 50.62 8.4056 50.2117C8.4056 49.7932 8.25044 49.4706 7.9401 49.244C7.63181 49.0184 7.23981 48.905 6.7641 48.905H5.1961V51.5143Z" fill="#E8E5DE"/>
<path d="M12.5737 56.1448L15.432 47.19H19.0213L21.8796 56.1448H19.3602L18.8825 54.6503H15.5709L15.0931 56.1448H12.5737ZM16.0323 52.9353H18.417L17.2777 49.244H17.1634L16.0323 52.9353Z" fill="#E8E5DE"/>
<path d="M23.8865 56.1448V47.19H30.7465V49.0806H26.2181V50.8405H30.5097V52.38H26.2181V54.2501H30.8731V56.1448H23.8865Z" fill="#E8E5DE"/>
<path d="M33.144 56.1448V47.19H35.5654V50.5751H38.8892V47.19H41.3229V56.1448H38.8892V52.4698H35.5654V56.1448H33.144Z" fill="#E8E5DE"/>
<path d="M48.611 56.3326C47.6228 56.3326 46.7531 56.1438 46.0017 55.765C45.2504 55.3843 44.6645 54.8453 44.2459 54.148C43.8264 53.4488 43.6171 52.6209 43.6171 51.6654C43.6171 50.7129 43.8264 49.8881 44.2459 49.1909C44.6645 48.4916 45.2504 47.9526 46.0017 47.5739C46.7531 47.1931 47.6228 47.0022 48.611 47.0022C49.6073 47.0022 50.4781 47.1931 51.2243 47.5739C51.9726 47.9526 52.5575 48.4916 52.9802 49.1909C53.4048 49.8881 53.6172 50.7129 53.6172 51.6654C53.6172 52.6209 53.4048 53.4488 52.9802 54.148C52.5575 54.8453 51.9726 55.3843 51.2243 55.765C50.4781 56.1438 49.6073 56.3326 48.611 56.3326ZM48.611 54.3522C49.1194 54.3522 49.5665 54.2399 49.9503 54.0133C50.3362 53.7877 50.6384 53.4743 50.8568 53.0741C51.0743 52.6719 51.1835 52.2023 51.1835 51.6654C51.1835 51.1325 51.0743 50.665 50.8568 50.2648C50.6384 49.8626 50.3362 49.5482 49.9503 49.3215C49.5665 49.0959 49.1194 48.9826 48.611 48.9826C48.1098 48.9826 47.6647 49.0959 47.2757 49.3215C46.8858 49.5482 46.5826 49.8626 46.3652 50.2648C46.1467 50.665 46.0385 51.1325 46.0385 51.6654C46.0385 52.2023 46.1467 52.6719 46.3652 53.0741C46.5826 53.4743 46.8858 53.7877 47.2757 54.0133C47.6647 54.2399 48.1098 54.3522 48.611 54.3522Z" fill="#E8E5DE"/>
<path d="M59.6887 56.3326C58.8934 56.3326 58.1921 56.1989 57.5857 55.9325C56.9783 55.663 56.5077 55.2944 56.1729 54.8259C55.8401 54.3583 55.6747 53.8193 55.6747 53.2089H57.9451C57.9451 53.6284 58.1064 53.9674 58.431 54.2256C58.7577 54.4849 59.2089 54.6135 59.7867 54.6135C60.2705 54.6135 60.6585 54.5227 60.9504 54.34C61.2444 54.1552 61.3914 53.903 61.3914 53.5845C61.3914 53.3344 61.3077 53.1456 61.1423 53.017C60.9759 52.8863 60.7544 52.7883 60.4767 52.723C60.2011 52.6556 59.8969 52.5994 59.5621 52.5555C59.2517 52.5147 58.922 52.4678 58.5739 52.4126C58.2278 52.3585 57.8879 52.2809 57.5531 52.1799C57.2203 52.0798 56.9161 51.939 56.6384 51.7593C56.3628 51.5796 56.1443 51.3418 55.981 51.0447C55.8177 50.7487 55.736 50.374 55.736 49.9218C55.736 49.3369 55.8963 48.8254 56.2178 48.3865C56.5384 47.9485 56.9875 47.6086 57.5653 47.3656C58.1421 47.1237 58.8158 47.0022 59.5866 47.0022C60.3726 47.0022 61.0586 47.1349 61.6446 47.3983C62.2295 47.6596 62.6868 48.023 63.0166 48.4885C63.3483 48.952 63.5147 49.4879 63.5147 50.0974H61.3302C61.3302 49.6645 61.177 49.3277 60.8728 49.0847C60.5676 48.8397 60.1685 48.7172 59.6764 48.7172C59.216 48.7172 58.8475 48.8142 58.5698 49.0071C58.2942 49.2011 58.1574 49.443 58.1574 49.734C58.1574 49.9933 58.2523 50.1903 58.4432 50.326C58.6362 50.4598 58.8893 50.5608 59.2027 50.6282C59.5182 50.6935 59.8602 50.7507 60.2277 50.7997C60.6115 50.8599 61.0096 50.9334 61.4241 51.0202C61.8375 51.108 62.2254 51.2397 62.5878 51.4163C62.9523 51.5909 63.2473 51.841 63.4739 52.1676C63.6995 52.4943 63.8128 52.922 63.8128 53.4498C63.8128 54.0358 63.6413 54.5431 63.2983 54.9729C62.9553 55.4037 62.4745 55.7385 61.8569 55.9774C61.2383 56.2142 60.5155 56.3326 59.6887 56.3326Z" fill="#E8E5DE"/>
<path d="M68.4916 56.1448V49.1705H65.6333V47.19H73.7754V49.1705H70.913V56.1448H68.4916Z" fill="#E8E5DE"/>
</svg>
